# xmcd CD database file
# Copyright (C) 1993-1998 Ti Kan
#
# Track frame offsets:
#	150
#	15535
#	29370
#	43805
#	57230
#	69960
#	86475
#	99422
#	113442
#	127822
#	144795
#	156372
#	172377
#	185182
#	201712
#	218000
#	233162
#	247440
#	267727
#	283710
#
# Disc length: 4036 seconds
#
# Revision: 1
# Processed by: cddbd v1.4b41PL1 Copyright (c) Steve Scherf et al.
# Submitted via: CDValet v3.31 - Copyright (c) 1997 Greg Leichner
#
DISCID=2f0fc214
DTITLE=Mick Lloyd's Nashville Music Machine - The Best of Count
DTITLE=ry Line Dancing [CD1 of 3)
DYEAR=1900
DGENRE=
TTITLE0=Achy Breaky Heart
TTITLE1=Boot Scootin' Boogie
TTITLE2=Chattahoochie
TTITLE3=Super Love
TTITLE4=Dumas Walker
TTITLE5=I Feel Lucky
TTITLE6=Love's Got a Hold of You
TTITLE7=Honky-Tonk Blues
TTITLE8=Reggae Cowboy
TTITLE9=Bop
TTITLE10=Whatcha Gonna Do With A Cowboy
TTITLE11=Why Haven't I heard From You
TTITLE12=My Next Broken Heart
TTITLE13=Ain't Goin' Down (' Till The Sun Comes Up)
TTITLE14=Queen of Memphis
TTITLE15=I Like It, I Love It
TTITLE16=Poor, Poor Pitiful Me
TTITLE17=You Win My Love
TTITLE18=My Maria
TTITLE19=Earthquake
EXTD=
EXTT0=
EXTT1=
EXTT2=
EXTT3=
EXTT4=
EXTT5=
EXTT6=
EXTT7=
EXTT8=
EXTT9=
EXTT10=
EXTT11=
EXTT12=
EXTT13=
EXTT14=
EXTT15=
EXTT16=
EXTT17=
EXTT18=
EXTT19=
PLAYORDER=
